<?xml version="1.0" standalone="no"?>
<!DOCTYPE svg PUBLIC "-//W3C//DTD SVG 20010904//EN"
 "http://www.w3.org/TR/2001/REC-SVG-20010904/DTD/svg10.dtd">
<svg version="1.0" xmlns="http://www.w3.org/2000/svg"
 width="512.000000pt" height="512.000000pt" viewBox="0 0 512.000000 512.000000"
 preserveAspectRatio="xMidYMid meet">

<g transform="translate(0.000000,512.000000) scale(0.100000,-0.100000)"
fill="#000000" stroke="none">
<path d="M221 4964 c-102 -27 -190 -119 -211 -218 -7 -35 -9 -714 -8 -2211 l3
-2160 23 -46 c32 -64 86 -117 152 -148 l55 -26 1815 0 1815 0 57 28 c32 16 75
48 97 73 77 88 71 -115 69 2329 l-3 2190 -27 45 c-36 61 -83 104 -143 132
l-50 23 -1795 2 c-1544 2 -1803 0 -1849 -13z m3631 -115 c48 -13 101 -67 116
-118 17 -56 16 -4292 -2 -4339 -16 -46 -72 -100 -115 -112 -23 -6 -651 -10
-1811 -10 -1701 0 -1777 1 -1815 19 -48 22 -69 44 -90 94 -13 32 -15 274 -15
2184 0 2073 1 2149 19 2189 18 40 56 75 102 93 34 14 3562 14 3611 0z"/>
<path d="M668 4149 c-26 -15 -25 -85 1 -99 13 -7 463 -10 1384 -10 1309 0
1365 1 1380 18 22 24 21 65 -1 85 -17 16 -127 17 -1383 17 -908 -1 -1370 -4
-1381 -11z"/>
<path d="M662 3378 c-7 -7 -12 -27 -12 -44 0 -69 -102 -64 1400 -64 1493 0
1400 -4 1400 60 0 65 108 60 -1404 60 -1054 0 -1375 -3 -1384 -12z"/>
<path d="M662 2608 c-16 -16 -15 -73 2 -87 10 -8 381 -10 1392 -9 l1379 3 9
27 c7 18 6 35 -2 53 l-12 25 -1378 0 c-1058 0 -1381 -3 -1390 -12z"/>
<path d="M672 1844 c-25 -17 -31 -71 -10 -92 9 -9 330 -12 1384 -12 1512 0
1404 -5 1404 60 0 64 93 60 -1400 60 -1211 0 -1358 -2 -1378 -16z"/>
<path d="M666 1074 c-23 -22 -21 -81 3 -94 13 -7 463 -10 1384 -10 1309 0
1365 1 1380 18 22 24 21 65 -1 85 -17 16 -128 17 -1385 17 -1228 0 -1367 -2
-1381 -16z"/>
<path d="M4517 4957 c-51 -16 -103 -60 -130 -110 l-22 -42 -3 -1792 -2 -1793
155 -482 c86 -266 163 -504 171 -529 26 -80 99 -90 123 -17 6 18 77 249 158
513 l148 480 3 1795 c2 1995 7 1852 -66 1923 -60 59 -98 67 -311 66 -112 0
-201 -5 -224 -12z m415 -118 c67 -18 68 -26 68 -389 l0 -320 -257 0 -258 0 3
327 c2 193 8 335 14 346 19 37 65 46 233 47 88 0 177 -5 197 -11z m-260 -2194
l-2 -1365 -95 0 -95 0 0 1365 0 1365 98 0 97 0 -3 -1365z m328 0 l0 -1365
-105 0 -105 0 0 1365 0 1365 105 0 105 0 0 -1365z m-25 -1497 c-2 -7 -52 -170
-110 -363 -58 -192 -108 -357 -112 -365 -3 -9 -12 6 -24 41 l-17 56 94 309
c52 170 96 315 99 322 2 6 20 12 39 12 24 0 34 -4 31 -12z"/>
</g>
</svg>
